<?xml version="1.0" standalone="no"?>
<!DOCTYPE svg PUBLIC "-//W3C//DTD SVG 20010904//EN"
 "http://www.w3.org/TR/2001/REC-SVG-20010904/DTD/svg10.dtd">
<svg version="1.0" xmlns="http://www.w3.org/2000/svg"
 width="32.000000pt" height="32.000000pt" viewBox="0 0 32.000000 32.000000"
 preserveAspectRatio="xMidYMid meet">

<g transform="translate(0.000000,32.000000) scale(0.100000,-0.100000)"
fill="#000000" stroke="none">
<path d="M0 160 l0 -160 160 0 160 0 0 160 0 160 -160 0 -160 0 0 -160z m217
62 c-21 -23 -22 -42 -2 -42 11 0 15 -12 15 -50 0 -43 -3 -50 -19 -50 -17 0
-20 8 -23 48 l-3 47 -34 -48 c-25 -33 -42 -47 -59 -47 -23 0 -22 3 24 68 26
37 52 73 57 80 5 6 21 12 35 12 24 0 24 -1 9 -18z"/>
</g>
</svg>
